<svg id="Layer_1" enable-background="new 0 0 53 53" height="512" viewBox="0 0 53 53" width="512" xmlns="http://www.w3.org/2000/svg"><g id="_x36_4"><g><path d="m50.5 14.0443783v28.456686c0 4.2921677-3.4794884 7.771656-7.771656 7.771656h-32.456688c-4.2921672 0-7.771656-3.4794884-7.771656-7.771656v-28.456686c0-4.2921677 3.4794888-7.7716565 7.771656-7.7716565h32.456688c4.2921676 0 7.771656 3.4794888 7.771656 7.7716565z" fill="#7979f7"/></g><g><path d="m50.5 14.0427408v28.4602051c0 4.2897949-3.4799805 7.7697754-7.7700195 7.7697754h-2.4799805c4.289978 0 7.7700195-3.4799805 7.7700195-7.7697754v-28.4602051c0-4.2897949-3.4800415-7.7700191-7.7700195-7.7700191h2.4799805c4.290039.0000001 7.7700195 3.4802242 7.7700195 7.7700191z" fill="#5e5eef"/></g><g><path d="m46.5 24.4891567v18.1174221c0 2.0247574-1.6413879 3.6661415-3.6661415 3.6661415h-32.667717c-2.0247545 0-3.6661415-1.6413841-3.6661415-3.6661415v-18.1174221c0-2.0247555 1.641387-3.6661415 3.6661415-3.6661415h32.667717c2.0247536 0 3.6661415 1.641386 3.6661415 3.6661415z" fill="#fff"/></g><g><path d="m46.5 36.9028473v5.6999512c0 2.0300293-1.6400146 3.6699219-3.6699829 3.6699219h-32.6600342c-1.8499756 0-3.3800049-1.369873-3.6300049-3.1499023 6.0800171 2.3901367 15.4000244 2.5700684 25.25-.0200195 5.6300049-1.4799806 10.6600342-3.6599122 14.710022-6.1999513z" fill="#e4e3ff"/></g><g><path d="m50.5 18.147234v-4.1027842c0-4.2922363-3.4794922-7.771728-7.7716675-7.771728h-32.456665c-4.2921753 0-7.7716675 3.4794917-7.7716675 7.771728v4.1027842z" fill="#f9b938"/></g><g><path d="m50.5 14.0427408v4.1000986h-2.4799805v-4.1000986c0-4.2897949-3.4800415-7.7700191-7.7700195-7.7700191h2.4799805c4.290039.0000001 7.7700195 3.4802242 7.7700195 7.7700191z" fill="#e5a320"/></g><g><path d="m2.5 15.933h48v2.214h-48z" fill="#5e5eef"/></g><g><g><g><path d="m15.5392208 11.2429361c0 1.6799316-1.3600464 3.0400391-3.0400391 3.0400391-1.6699829 0-3.0299683-1.3601074-3.0299683-3.0400391 0-1.6801758 1.3599854-3.0400391 3.0299683-3.0400391 1.6799927.0000001 3.0400391 1.3598634 3.0400391 3.0400391z" fill="#e5a320"/></g><g><path d="m13.9060068 4.129066v6.8420758c0 .7741861-.6276026 1.4017878-1.4017887 1.4017878h-.0000019c-.7741861 0-1.4017887-.6276016-1.4017887-1.4017878v-6.8420758c0-.7741859.6276026-1.4017878 1.4017887-1.4017878h.0000029c.7741861 0 1.4017877.6276019 1.4017877 1.4017878z" fill="#474646"/></g></g><g><g><path d="m24.8697433 11.2429361c0 1.6799316-1.3600464 3.0400391-3.0400391 3.0400391-1.6699829 0-3.0299683-1.3601074-3.0299683-3.0400391 0-1.6801758 1.3599854-3.0400391 3.0299683-3.0400391 1.6799928.0000001 3.0400391 1.3598634 3.0400391 3.0400391z" fill="#e5a320"/></g><g><path d="m23.2365284 4.129066v6.8420758c0 .7741861-.6276016 1.4017878-1.4017887 1.4017878h-.0000019c-.7741871 0-1.4017887-.6276016-1.4017887-1.4017878v-6.8420758c0-.7741859.6276016-1.4017878 1.4017887-1.4017878h.0000019c.7741871 0 1.4017887.6276019 1.4017887 1.4017878z" fill="#474646"/></g></g><g><g><path d="m34.200264 11.2429361c0 1.6799316-1.3600464 3.0400391-3.0400391 3.0400391-1.6699829 0-3.0299683-1.3601074-3.0299683-3.0400391 0-1.6801758 1.3599854-3.0400391 3.0299683-3.0400391 1.6799927.0000001 3.0400391 1.3598634 3.0400391 3.0400391z" fill="#e5a320"/></g><g><path d="m32.5670509 4.129066v6.8420758c0 .7741861-.6276016 1.4017878-1.4017887 1.4017878h-.0000019c-.7741871 0-1.4017887-.6276016-1.4017887-1.4017878v-6.8420758c0-.7741859.6276016-1.4017878 1.4017887-1.4017878h.0000019c.7741871 0 1.4017887.6276019 1.4017887 1.4017878z" fill="#474646"/></g></g><g><g><path d="m43.5307846 11.2429361c0 1.6799316-1.3600464 3.0400391-3.0400391 3.0400391-1.6699829 0-3.0299683-1.3601074-3.0299683-3.0400391 0-1.6801758 1.3599854-3.0400391 3.0299683-3.0400391 1.6799927.0000001 3.0400391 1.3598634 3.0400391 3.0400391z" fill="#e5a320"/></g><g><path d="m41.8975716 4.129066v6.8420758c0 .7741861-.6276016 1.4017878-1.4017868 1.4017878h-.0000038c-.7741852 0-1.4017868-.6276016-1.4017868-1.4017878v-6.8420758c0-.7741859.6276016-1.4017878 1.4017868-1.4017878h.0000038c.7741851 0 1.4017868.6276019 1.4017868 1.4017878z" fill="#474646"/></g></g></g><g><g><path d="m34.0489502 28.4486103.0000114 6.1365032c.0000038.7826881-.5209045 1.460083-1.2749481 1.6698952-1.7106895.4760056-4.465023 1.5554771-6.0090694 2.5464706-.6919785.4441223-1.595293.4436951-2.2870159-.0008316-1.5415497-.9906502-4.2899284-2.0695229-5.9981766-2.5454788-.7537918-.210022-1.2744923-.8872681-1.2744923-1.6697731l.0000095-6.1367855z" fill="#474646"/></g><g><path d="m34.0472603 28.4519939v6.1301289c0 .7900391-.5200195 1.4599609-1.2700195 1.6699219-1.7099609.4799805-4.4699707 1.5600586-6.0100098 2.5500488-.6900635.4399414-1.5999756.4399414-2.289917 0-1.5400391-.9899902-4.2900391-2.0700684-6-2.5500488-.4400635-.1298828-.8100586-.4099121-1.0300293-.7897949.1799316.1298828.3898926.2397461.6199951.3098145 1.7099609.4699707 4.4599609 1.5600586 6 2.5500488.6900635.4299316 1.5999756.4299316 2.289917 0 1.5400391-.9899902 4.3000488-2.0800781 6.0100098-2.5500488.75-.2099609 1.2700195-.8798828 1.2700195-1.6699219v-5.6501484h.4100342z" fill="#2d2c2c"/></g><g><path d="m34.0504379 30.4309254v.6138496l-8.0997181 2.0860767c-.2110367.0575447-.4364758.0575447-.6474533 0l-8.0949745-2.0860767v-.6138496l8.0949745 2.0860729c.2109776.0527763.4364166.0527763.6474533 0z" fill="#2d2c2c"/></g><g opacity=".2"><path d="m18.788229 35.4205627c-.1985683 0-.3596706-.1611023-.3596706-.3596725v-.8026695c0-.1985664.1611023-.3596687.3596706-.3596687.1985664 0 .3596687.1611023.3596687.3596687v.8026695c0 .1985702-.1611023.3596725-.3596687.3596725z" fill="#fff"/></g><g opacity=".2"><g><path d="m18.788229 33.431221c-.1985683 0-.3596706-.1611023-.3596706-.3596725v-.2896538c0-.1985703.1611023-.3596725.3596706-.3596725.1985664 0 .3596687.1611023.3596687.3596725v.2896538c0 .1985702-.1611023.3596725-.3596687.3596725z" fill="#fff"/></g></g><g><path d="m37.1367111 28.787735v.6484623h-.0063019c-.0125275.1258812-.0943718.2392349-.2328568.2707062l-10.9480057 2.8204021c-.2077274.0566788-.4344349.0566788-.6484623 0l-10.9354038-2.8204021c-.1573896-.0377731-.2392349-.1699924-.2455368-.3022137 0-.0062637 0-.0062637 0-.0125656v-.6043892c0 .1322212.0818453.2644043.2455368.3084774l10.9354038 2.8204422c.2140274.0503368.4407349.0503368.6484623 0l10.9480057-2.8204422c.1573907-.0440731.2391587-.1762562.2391587-.3084774z" fill="#1b1b1b"/></g><g><path d="m36.8967247 29.0963173-10.944725 2.8181057c-.2132587.0549107-.4369545.0548973-.6502075-.0000401l-10.9390144-2.8180752c-.3230381-.0832195-.3230095-.5419979.0000381-.6251774l10.9391289-2.8166828c.2131557-.054884.436739-.0548992.6499023-.0000401l10.9448395 2.8167114c.3230972.0831529.3231239.5420076.0000381.6251985z" fill="#474646"/></g><g><g><path d="m14.6123047 33.5238953c-.1376953 0-.25-.1123047-.25-.25v-4.7470684c0-.1376953.1123047-.25.25-.25h11.2382813c.1376953 0 .25.1123047.25.25s-.1123047.25-.25.25h-10.9882813v4.4970684c0 .1376953-.1123047.25-.25.25z" fill="#f9b938"/></g><g><path d="m13.6842537 37.0763931h1.8559532c.2349796 0 .4076138-.2206078.350069-.4507904l-.5706482-2.2011642c.1198902-.1486893.1869774-.3404961.1869774-.5419044 0-.4939613-.4028149-.8967743-.8967171-.8967743-.4891605 0-.8920326.402813-.8920326.8967743 0 .2014084.0671453.3932152.1870356.5419044l-.5707073 2.2011642c-.0574865.2301827.1150894.4507904.35007.4507904z" fill="#f9b938"/></g><g><path d="m13.6842537 37.0763931h.378871c-.2349796 0-.4076147-.2206078-.35007-.4507904l.5105419-1.9693146c.0324936-.1253357.0260334-.2599869-.0326443-.3754082-.0611706-.1203232-.0942259-.2569695-.0942259-.3983459 0-.426815.302125-.7864838.7049389-.8728027-.0623446-.0191994-.1246901-.0239716-.1917772-.0239716-.4891605 0-.8920326.402813-.8920326.8967743 0 .2014084.0671453.3932152.1870356.5419044l-.5707073 2.2011642c-.0574866.2301828.1150893.4507905.3500699.4507905z" fill="#ecb021"/></g></g><g><path d="m27.1321602 28.5621014c0 .3601074-.6799316.6501465-1.5100098.6501465-.8398438 0-1.5198975-.2900391-1.5198975-.6501465s.6800537-.6501465 1.5198975-.6501465c.8300781 0 1.5100098.290039 1.5100098.6501465z" fill="#f9b938"/></g></g><g><g opacity=".3"><g><path d="m4.5775399 40.5596848c-.4140625 0-.75-.3359375-.75-.75v-9.8427734c0-.4140625.3359375-.75.75-.75s.75.3359375.75.75v9.8427734c0 .4140625-.3359375.75-.75.75z" fill="#fff"/></g></g><g opacity=".3"><g><path d="m4.5775399 27.4561691c-.4140625 0-.75-.3359375-.75-.75v-.71875c0-.4140625.3359375-.75.75-.75s.75.3359375.75.75v.71875c0 .4140625-.3359375.75-.75.75z" fill="#fff"/></g></g></g><g><g opacity=".3"><g><path d="m11.9525404 8.4428234c-.1379414 0-.249856-.1119137-.249856-.249855v-2.0810809c0-.1379409.1119146-.2498555.249856-.2498555.1379404 0 .249855.1119146.249855.2498555v2.0810809c0 .1379413-.1119146.249855-.249855.249855z" fill="#fff"/></g></g><g opacity=".3"><g><path d="m11.9525404 5.2754574c-.1379414 0-.249856-.1119146-.249856-.2498555v-.2394448c0-.1379409.1119146-.2498555.249856-.2498555.1379404 0 .249855.1119146.249855.2498555v.2394447c0 .1379409-.1119146.2498556-.249855.2498556z" fill="#fff"/></g></g></g><g><g opacity=".3"><g><path d="m21.2796631 8.4428234c-.1379414 0-.249855-.1119137-.249855-.249855v-2.0810809c0-.1379409.1119137-.2498555.249855-.2498555s.249855.1119146.249855.2498555v2.0810809c0 .1379413-.1119137.249855-.249855.249855z" fill="#fff"/></g></g><g opacity=".3"><g><path d="m21.2796631 5.2754574c-.1379414 0-.249855-.1119146-.249855-.2498555v-.2394448c0-.1379409.1119137-.2498555.249855-.2498555s.249855.1119146.249855.2498555v.2394447c0 .1379409-.1119137.2498556-.249855.2498556z" fill="#fff"/></g></g></g><g><g opacity=".3"><g><path d="m30.565546 8.4428234c-.1379414 0-.2498569-.1119137-.2498569-.249855v-2.0810809c0-.1379409.1119156-.2498555.2498569-.2498555.1379395 0 .249855.1119146.249855.2498555v2.0810809c.0000001.1379413-.1119155.249855-.249855.249855z" fill="#fff"/></g></g><g opacity=".3"><g><path d="m30.565546 5.2754574c-.1379414 0-.2498569-.1119146-.2498569-.2498555v-.2394448c0-.1379409.1119156-.2498555.2498569-.2498555.1379395 0 .249855.1119146.249855.2498555v.2394447c.0000001.1379409-.1119155.2498556-.249855.2498556z" fill="#fff"/></g></g></g><g><g opacity=".3"><g><path d="m39.8327827 8.4428234c-.1379433 0-.2498589-.1119137-.2498589-.249855v-2.0810809c0-.1379409.1119156-.2498555.2498589-.2498555.1379395 0 .249855.1119146.249855.2498555v2.0810809c.0000001.1379413-.1119155.249855-.249855.249855z" fill="#fff"/></g></g><g opacity=".3"><g><path d="m39.8327827 5.2754574c-.1379433 0-.2498589-.1119146-.2498589-.2498555v-.2394448c0-.1379409.1119156-.2498555.2498589-.2498555.1379395 0 .249855.1119146.249855.2498555v.2394447c.0000001.1379409-.1119155.2498556-.249855.2498556z" fill="#fff"/></g></g></g></g></svg>